<svg xmlns="http://www.w3.org/2000/svg" width="612" height="612" viewBox="0 0 612 612"><path fill="#AD0C5C" d="M301.41 141.512L38.25 245.552c-4.526 1.795-7.729 6.51-7.729 11.38 0 4.87 3.203 9.585 7.729 11.379L61.2 277.3v68.084c-10.754 4.77-18.36 15.508-18.36 27.922 0 16.755 13.845 30.6 30.6 30.6s30.6-13.845 30.6-30.6c0-12.414-7.606-23.15-18.36-27.922v-58.332l42.84 17.02v93.713c0 12.273 7.643 21.523 17.404 29.644 9.76 8.12 22.655 15.407 38.441 21.803 31.572 12.788 74.277 21.993 121.635 21.993s90.063-9.205 121.635-21.993c15.786-6.394 28.682-13.683 38.441-21.802 9.76-8.121 17.404-17.371 17.404-29.645v-93.712l90.27-35.764c4.526-1.794 7.729-6.51 7.729-11.38s-3.203-9.583-7.729-11.378L310.59 141.51c-3.941-1.294-6.72-.617-9.18.002zm4.59 24.48l229.883 91.035L306 347.87 76.118 257.028 306 165.992zM153 313.637l148.41 58.714a12.375 12.375 0 0 0 9.18 0L459 313.637v84.15c0 .539-1.688 5.145-8.605 10.9-6.92 5.758-18.05 12.275-32.131 17.979-28.162 11.406-68.078 20.08-112.264 20.08s-84.101-8.674-112.264-20.08c-14.08-5.703-25.21-12.221-32.13-17.98-6.918-5.755-8.606-10.363-8.606-10.9v-84.15zm-79.56 53.55c3.525 0 6.12 2.596 6.12 6.12 0 3.525-2.595 6.12-6.12 6.12s-6.12-2.595-6.12-6.12 2.595-6.12 6.12-6.12z"/></svg>